<?xml version="1.0" encoding="utf-8"?>
<!-- Svg Vector Icons : http://www.onlinewebfonts.com/icon -->
<!DOCTYPE svg PUBLIC "-//W3C//DTD SVG 1.1//EN" "http://www.w3.org/Graphics/SVG/1.1/DTD/svg11.dtd">
<svg version="1.1" xmlns="http://www.w3.org/2000/svg" xmlns:xlink="http://www.w3.org/1999/xlink" x="0px" y="0px" viewBox="0 0 256 256" enable-background="new 0 0 256 256" xml:space="preserve">
<metadata> Svg Vector Icons : http://www.onlinewebfonts.com/icon </metadata>
<g><g><path fill="#000000" d="M16.5,129.5c-8.9,4.7-8.6,11.6,0.8,15.3l27.8,11c9.4,3.7,23.6,1.7,31.5-4.5l120.6-95.1c7.9-6.2,8.8-5.3,1.9,2l-95.3,102c-6.9,7.3-4.9,16.4,4.5,20l3.3,1.3c9.4,3.6,24.8,9.8,34.1,13.6l30.8,12.5c9.3,3.8,17,6.9,17,7c0,0,0,0.2,0.1,0.2c0,0,2.3-7.9,4.9-17.7l46.9-172.5c2.6-9.7-2.5-13.9-11.4-9.2L16.5,129.5z"/><path fill="#000000" d="M92.7,242.4c-0.6,1.6,19-28.3,19-28.3c5.5-8.4,2.4-18.5-6.9-22.3L83.4,183c-9.3-3.8-13.8,0.7-9.9,10C73.5,193.1,93.2,240.7,92.7,242.4z"/><path fill="#000000" d="M16.5,129.5c-8.9,4.7-8.6,11.6,0.8,15.3l27.8,11c9.4,3.7,23.6,1.7,31.5-4.5l120.6-95.1c7.9-6.2,8.8-5.3,1.9,2l-95.3,102c-6.9,7.3-4.9,16.4,4.5,20l3.3,1.3c9.4,3.6,24.8,9.8,34.1,13.6l30.8,12.5c9.3,3.8,17,6.9,17,7c0,0,0,0.2,0.1,0.2c0,0,2.3-7.9,4.9-17.7l46.9-172.5c2.6-9.7-2.5-13.9-11.4-9.2L16.5,129.5z"/><path fill="#000000" d="M92.7,242.4c-0.6,1.6,19-28.3,19-28.3c5.5-8.4,2.4-18.5-6.9-22.3L83.4,183c-9.3-3.8-13.8,0.7-9.9,10C73.5,193.1,93.2,240.7,92.7,242.4z"/></g></g>
</svg>